<svg width="16" height="16" viewBox="0 0 16 16" fill="none" xmlns="http://www.w3.org/2000/svg">
<path id="Vector" d="M15.5112 6.52716C14.9096 5.54201 14.1507 4.66202 13.2647 3.92212L15.1307 2.05615C15.2521 1.93046 15.3193 1.76212 15.3177 1.58739C15.3162 1.41265 15.2461 1.24551 15.1226 1.12195C14.999 0.998388 14.8319 0.928301 14.6571 0.926783C14.4824 0.925265 14.3141 0.992436 14.1884 1.11383L12.1591 3.14574C10.9012 2.39857 9.46307 2.00914 8 2.01949C3.8742 2.01949 1.52307 4.84378 0.488783 6.52716C0.169253 7.04397 0 7.63957 0 8.24719C0 8.8548 0.169253 9.4504 0.488783 9.96722C1.0904 10.9524 1.84927 11.8324 2.73528 12.5723L0.869308 14.4382C0.805659 14.4997 0.754889 14.5732 0.719963 14.6545C0.685037 14.7358 0.666652 14.8233 0.665884 14.9118C0.665115 15.0003 0.681976 15.088 0.715484 15.1699C0.748993 15.2518 0.798476 15.3262 0.861048 15.3888C0.92362 15.4514 0.998027 15.5009 1.07993 15.5344C1.16183 15.5679 1.24958 15.5847 1.33807 15.584C1.42656 15.5832 1.514 15.5648 1.59531 15.5299C1.67662 15.495 1.75015 15.4442 1.81163 15.3805L3.84554 13.3466C5.10192 14.0937 6.53832 14.4838 8 14.4749C12.1258 14.4749 14.4769 11.6506 15.5112 9.96722C15.8307 9.4504 16 8.8548 16 8.24719C16 7.63957 15.8307 7.04397 15.5112 6.52716V6.52716ZM1.62436 9.26947C1.43452 8.96228 1.33397 8.6083 1.33397 8.24719C1.33397 7.88607 1.43452 7.53209 1.62436 7.2249C2.51337 5.78143 4.52262 3.35233 8 3.35233C9.10644 3.34614 10.1973 3.6128 11.1762 4.12871L9.83465 5.47022C9.19485 5.04544 8.42778 4.85511 7.66361 4.93151C6.89945 5.00792 6.18525 5.34635 5.64221 5.8894C5.09917 6.43244 4.76073 7.14663 4.68433 7.9108C4.60792 8.67497 4.79825 9.44203 5.22303 10.0818L3.6836 11.6213C2.8673 10.9613 2.17072 10.1658 1.62436 9.26947V9.26947ZM9.99926 8.24719C9.99926 8.77742 9.78862 9.28594 9.41369 9.66088C9.03876 10.0358 8.53024 10.2464 8 10.2464C7.70312 10.2453 7.41035 10.1769 7.14365 10.0465L9.79933 7.39084C9.92976 7.65754 9.99811 7.95031 9.99926 8.24719V8.24719ZM6.00074 8.24719C6.00074 7.71695 6.21138 7.20843 6.58631 6.8335C6.96124 6.45856 7.46976 6.24793 8 6.24793C8.29688 6.24908 8.58965 6.31743 8.85635 6.44785L6.20067 9.10354C6.07024 8.83684 6.00189 8.54407 6.00074 8.24719ZM14.3756 9.26947C13.4866 10.7129 11.4774 13.142 8 13.142C6.89356 13.1482 5.80266 12.8816 4.82384 12.3657L6.16535 11.0242C6.80515 11.4489 7.57222 11.6393 8.33639 11.5629C9.10055 11.4865 9.81475 11.148 10.3578 10.605C10.9008 10.0619 11.2393 9.34774 11.3157 8.58357C11.3921 7.81941 11.2017 7.05234 10.777 6.41253L12.3164 4.8731C13.1327 5.53305 13.8293 6.3286 14.3756 7.2249C14.5655 7.53209 14.666 7.88607 14.666 8.24719C14.666 8.6083 14.5655 8.96228 14.3756 9.26947V9.26947Z" fill="#4B5563"/>
</svg>
